<?xml version="1.0" encoding="UTF-8" standalone="no"?>
<!-- Created with Inkscape (http://www.inkscape.org/) -->

<svg
   width="48"
   height="48"
   viewBox="0 0 48 48"
   version="1.1"
   id="svg1"
   xml:space="preserve"
   sodipodi:docname="icon.svg"
   inkscape:version="1.4 (86a8ad7, 2024-10-11)"
   xmlns:inkscape="http://www.inkscape.org/namespaces/inkscape"
   xmlns:sodipodi="http://sodipodi.sourceforge.net/DTD/sodipodi-0.dtd"
   xmlns="http://www.w3.org/2000/svg"
   xmlns:svg="http://www.w3.org/2000/svg"><sodipodi:namedview
     id="namedview1"
     pagecolor="#ffffff"
     bordercolor="#000000"
     borderopacity="0.25"
     inkscape:showpageshadow="2"
     inkscape:pageopacity="0.0"
     inkscape:pagecheckerboard="0"
     inkscape:deskcolor="#d1d1d1"
     inkscape:zoom="8.8645833"
     inkscape:cx="13.254994"
     inkscape:cy="32.319624"
     inkscape:window-width="1920"
     inkscape:window-height="1111"
     inkscape:window-x="-9"
     inkscape:window-y="-9"
     inkscape:window-maximized="1"
     inkscape:current-layer="svg1" /><defs
     id="defs1" /><g
     id="layer1"
     style="fill:#80cc28;fill-opacity:1"><path
       id="path5"
       style="fill:#80cc28;fill-opacity:1"
       d="M 21.070312,9.1660387 C 13.320688,9.1667552 5.6890576,9.1841529 3.6801943,9.2200752 3.4047485,9.2250007 2.9578973,9.2616327 2.6918224,9.3346723 1.5145292,9.6578485 0.56320564,10.564199 0.20267314,11.705109 c -0.0831497,0.263129 -0.13047449,0.709666 -0.13748572,0.985644 -0.08945016,3.520962 -0.08938664,23.990397 1.9056e-4,27.48729 0.0069638,0.271852 0.0542996,0.715057 0.13890875,0.977629 0.35822974,1.111712 1.30017187,2.032953 2.41207577,2.360285 0.2648341,0.07796 0.7127366,0.113789 0.9887982,0.11838 4.1081619,0.06831 31.7671723,0.07272 35.8568933,0.0057 0.273457,-0.0045 0.71872,-0.04027 0.984795,-0.113314 1.177294,-0.323176 2.128617,-1.229527 2.489149,-2.370437 0.08315,-0.263129 0.130585,-0.709664 0.137573,-0.985645 0.05606,-2.214089 0.07258,-11.125077 0.05651,-18.342624 -6.12e-4,-0.274967 -0.225025,-0.497871 -0.501167,-0.497871 h -1.855468 a 0.5,0.5 135 0 0 -0.5,0.5 v 4.09961 13.894531 a 1.0987698,1.0987698 105.42224 0 1 -0.203126,0.736328 l -0.242187,0.240234 -17.646484,0.0114 c -0.276142,1.78e-4 -0.723858,5.22e-4 -1,7.36e-4 C 12.687642,40.81952 5.6915344,40.802316 3.8124969,40.771969 3.5384049,40.767543 3.1312963,40.67573 3,40.488281 2.8728598,38.996556 2.865486,36.008435 2.8652409,26.916132 c -7.4e-6,-0.276206 -6.5e-6,-0.723974 -6.5e-6,-1.000116 V 13.037109 a 1.098773,1.098773 105.42216 0 1 0.203125,-0.736328 l 0.203125,-0.236328 h 17.7988276 9.22461 a 0.5,0.5 135 0 0 0.5,-0.5 V 9.6796875 c 0,-0.2761424 -0.223857,-0.5005092 -0.499999,-0.5011373 -2.598358,-0.00591 -5.273246,-0.011866 -8.224612,-0.012482 -0.276142,-5.77e-5 -0.723857,-5.48e-5 -0.999999,-2.93e-5 z M 9.8556549,14.98649 c -0.058383,0.0026 -0.3300176,0.0168 -0.6021047,0.0632 -1.0242156,0.17467 -1.8708775,0.685486 -2.5599927,1.544738 -0.1727646,0.215419 -0.4226602,0.58967 -0.5356782,0.841275 -0.475389,1.058329 -0.4694877,2.520377 0.015825,3.617348 0.1116208,0.2523 0.3528541,0.632241 0.5282464,0.845304 0.5760526,0.699775 1.3989067,1.250176 2.2086517,1.478444 0.2654969,0.07484 0.7124883,0.125817 0.9884726,0.131568 1.4365628,0.02993 2.6887758,-0.538491 3.5414668,-1.607147 0.172155,-0.215757 0.412927,-0.595739 0.525435,-0.847657 0.506535,-1.134189 0.488152,-2.625136 -0.04461,-3.721582 -0.120566,-0.248127 -0.377087,-0.61757 -0.554251,-0.829268 -0.684365,-0.817767 -1.520595,-1.304261 -2.514426,-1.462998 -0.272616,-0.04354 -0.497218,-0.05144 -0.497219,-0.05144 z m 17.8474331,3.919797 -5.042894,5.042894 -5.751953,5.751954 a 0.4997305,0.4997305 0.01544013 0 1 -0.706916,-1.91e-4 l -1.103821,-1.105012 -1.810547,-1.8125 a 0.49973063,0.49973063 0.01544704 0 0 -0.706916,-1.91e-4 l -2.8534407,2.85344 -3.5585938,3.558594 a 1.2071068,1.2071068 112.5 0 0 -0.3535534,0.853553 v 1.169922 2.169922 a 0.5,0.5 45 0 0 0.5,0.5 h 14.7558589 15.75586 a 0.5,0.5 135 0 0 0.5,-0.5 v -4.033203 -5.035157 a 1.2067469,1.2067469 67.49396 0 0 -0.353628,-0.853479 l -3.92751,-3.925854 a 4742.8752,4742.8752 44.99396 0 1 -0.707181,-0.707032 l -1.150316,-1.150316 a 0.6903121,0.6903121 42.003442 0 0 -0.392613,-0.353553 v -0.03906 l -2.38473,-2.384731 a 0.49999991,0.49999991 5.2309939e-6 0 0 -0.707106,0 z" /><path
       style="fill:#80cc28;fill-opacity:1;stroke-width:3.58498;stroke-linecap:round;stroke-linejoin:round;stroke-dashoffset:0.566928"
       id="rect5"
       width="12.487492"
       height="2.8012116"
       x="35.512508"
       y="9.1648121"
       d="M 36.012508,9.1648121 H 47.5 a 0.5,0.5 45 0 1 0.5,0.5 v 1.8012119 a 0.5,0.5 135 0 1 -0.5,0.5 H 36.012508 a 0.5,0.5 45 0 1 -0.5,-0.5 V 9.6648121 a 0.5,0.5 135 0 1 0.5,-0.5 z" /><path
       style="fill:#80cc28;fill-opacity:1;stroke-width:3.57344;stroke-linecap:round;stroke-linejoin:round;stroke-dashoffset:0.566928"
       id="rect5-4"
       width="12.484493"
       height="2.7838612"
       x="4.2879725"
       y="-43.162834"
       transform="matrix(-0.00138984,0.99999903,-0.99999964,-8.4291509e-4,7.6780863e-7,-3.4702613e-7)"
       d="M 4.7879725,-43.162834 H 16.272466 a 0.50000008,0.50000008 45 0 1 0.5,0.5 v 1.783861 a 0.50000008,0.50000008 135 0 1 -0.5,0.5 H 4.7879725 a 0.50000008,0.50000008 45 0 1 -0.5,-0.5 v -1.783861 a 0.50000008,0.50000008 135 0 1 0.5,-0.5 z" /></g></svg>
